<?xml version="1.0" standalone="no"?>
<!DOCTYPE svg PUBLIC "-//W3C//DTD SVG 20010904//EN"
 "http://www.w3.org/TR/2001/REC-SVG-20010904/DTD/svg10.dtd">
<svg version="1.0" xmlns="http://www.w3.org/2000/svg"
 width="700.000000pt" height="700.000000pt" viewBox="0 0 700.000000 700.000000"
 preserveAspectRatio="xMidYMid meet">
<metadata>
Created by potrace 1.14, written by Peter Selinger 2001-2017
</metadata>
<g transform="translate(0.000000,700.000000) scale(0.100000,-0.100000)"
fill="#000000" stroke="none">
<path d="M0 3500 l0 -3500 3500 0 3500 0 0 3500 0 3500 -3500 0 -3500 0 0
-3500z m3851 1791 c418 -91 729 -314 892 -638 37 -72 67 -187 67 -255 0 -46
-5 -62 -24 -85 l-24 -28 -269 -3 c-174 -2 -281 1 -305 8 -42 12 -82 58 -94
105 -22 95 -101 189 -212 254 -130 77 -280 108 -466 98 -333 -18 -516 -149
-533 -381 -16 -212 114 -348 436 -455 122 -41 346 -106 436 -126 39 -9 142
-37 230 -61 550 -155 811 -350 905 -674 28 -95 39 -334 20 -446 -74 -465 -479
-780 -1100 -859 -170 -22 -555 -17 -695 9 -295 55 -512 148 -703 301 -101 82
-188 191 -246 310 -56 114 -78 199 -80 298 -1 74 1 80 27 103 l28 24 270 0
c181 0 278 -4 292 -11 43 -22 69 -55 102 -127 43 -91 92 -152 171 -208 81 -58
149 -88 259 -116 78 -19 115 -22 285 -22 164 0 210 4 290 22 189 44 311 126
373 251 29 60 32 73 32 161 -1 116 -21 164 -98 237 -117 111 -283 175 -822
317 -645 170 -930 347 -1054 657 -42 105 -62 223 -62 369 0 142 16 231 61 349
127 328 479 566 942 636 145 22 543 14 669 -14z"/>
</g>
</svg>
