<svg width="24" height="24" viewBox="0 0 24 24" fill="none" xmlns="http://www.w3.org/2000/svg">
<g id="fi-rr-arrow-small-right 1">
<g id="Group">
<path id="Vector" d="M13.121 6.293C12.9335 6.48053 12.8282 6.73484 12.8282 7C12.8282 7.26516 12.9335 7.51947 13.121 7.707L16.413 11L6 11.007C5.73478 11.007 5.48043 11.1124 5.29289 11.2999C5.10536 11.4874 5 11.7418 5 12.007C5 12.2722 5.10536 12.5266 5.29289 12.7141C5.48043 12.9016 5.73478 13.007 6 13.007L16.414 13L13.121 16.293C13.0255 16.3852 12.9493 16.4956 12.8969 16.6176C12.8445 16.7396 12.8169 16.8708 12.8157 17.0036C12.8146 17.1364 12.8399 17.2681 12.8902 17.391C12.9405 17.5138 13.0147 17.6255 13.1086 17.7194C13.2025 17.8133 13.3141 17.8875 13.437 17.9378C13.5599 17.9881 13.6916 18.0134 13.8244 18.0123C13.9572 18.0111 14.0884 17.9835 14.2104 17.9311C14.3324 17.8787 14.4428 17.8025 14.535 17.707L18.121 14.122C18.3996 13.8434 18.6207 13.5127 18.7715 13.1487C18.9222 12.7847 18.9999 12.3945 18.9999 12.0005C18.9999 11.6065 18.9222 11.2163 18.7715 10.8523C18.6207 10.4883 18.3996 10.1576 18.121 9.879L14.535 6.293C14.3475 6.10553 14.0932 6.00021 13.828 6.00021C13.5628 6.00021 13.3085 6.10553 13.121 6.293Z" fill="white"/>
</g>
</g>
</svg>
