<svg width="44" height="44" viewBox="0 0 44 44" fill="none" xmlns="http://www.w3.org/2000/svg">
  <g clip-path="url(#clip0_669_785)">
    <path d="M41.7999 6.59989H40.3332V5.13319C40.3332 3.91821 39.3482 2.93319 38.1332 2.93319H36.3865L35.3253 0.810968C35.0787 0.312358 34.5697 -0.00234463 34.0134 -0.00011025H32.9999C32.1899 -0.00011025 31.5333 0.656538 31.5333 1.46659V2.93328H23.4666C22.2515 2.93328 21.2666 3.91821 21.2666 5.13328V6.59989H19.7999C18.585 6.59989 17.5999 7.58491 17.5999 8.79989V10.2666C17.5999 11.0766 18.2566 11.7333 19.0666 11.7333H19.1444L20.0024 19.31L16.4692 18.4799C16.2909 18.2057 16.1025 17.9336 15.8928 17.6666L14.6461 12.3008C14.5691 11.969 14.2739 11.734 13.9333 11.7332H9.71956C7.73148 9.98127 5.38187 9.18927 3.6094 9.71066L2.53287 8.53735C2.12604 8.09323 1.48692 7.94722 0.927639 8.17066C0.367413 8.38653 -0.00160307 8.92553 -5.61906e-05 9.52589V41.8146C0.00157662 43.0208 0.97903 43.9983 2.18525 43.9999H38.1332C38.506 43.9996 38.8193 43.7198 38.8615 43.3494L42.4541 11.7332H42.5333C43.3434 11.7332 44 11.0765 44 10.2665V8.79989C43.9999 7.58491 43.015 6.59989 41.7999 6.59989ZM32.9999 1.46659H34.0134L34.7467 2.93328H32.9999V1.46659ZM22.7332 5.13319C22.7332 4.72817 23.0616 4.39989 23.4666 4.39989H38.1332C38.5383 4.39989 38.8666 4.72817 38.8666 5.13319V6.59989H22.7332V5.13319ZM20.6799 20.9732L20.7262 20.982L21.3187 21.1227L21.7162 25.2844C20.5644 24.469 19.1863 24.0346 17.7753 24.0421C18.0469 22.7482 17.9031 21.4017 17.3646 20.1943L20.6799 20.9732ZM22.1129 27.4596L22.1224 27.4677C22.388 27.7134 22.6403 27.9734 22.8777 28.2464C23.7501 29.2199 24.3917 30.3778 24.7543 31.6337C24.8782 32.0711 24.9421 32.5233 24.9442 32.9779L18.0949 25.5081C19.6184 25.6787 21.0369 26.3677 22.1129 27.4596ZM14.385 18.1397V18.1382C15.9676 19.9569 16.7046 22.1415 16.3548 23.6096L8.89164 15.4733C10.3972 15.1367 12.6866 16.1941 14.385 18.1397ZM13.3466 13.1999L13.9333 15.6969C13.344 15.237 12.7017 14.8495 12.0201 14.5427C11.7429 14.0738 11.4329 13.6251 11.0924 13.1999H13.3466ZM9.66018 13.7455H9.6631C9.72394 13.8152 9.77387 13.8922 9.83248 13.9655C9.14404 13.9021 8.45087 14.0185 7.82094 14.3036L4.80617 11.016C6.28026 11.0373 8.2038 12.0742 9.66018 13.7455ZM30.737 42.1025C30.6235 42.3636 30.366 42.5328 30.0812 42.5333H23.4666H2.18525C1.7883 42.5333 1.46655 42.2115 1.46655 41.8146L1.45332 9.53328L16.1721 25.5815V25.5852L24.8166 35.0093L24.8262 35.0203L29.5679 40.1917C29.5848 40.2137 29.6024 40.2357 29.6215 40.257L30.6049 41.3291C30.7987 41.5377 30.8506 41.8413 30.737 42.1025ZM26.1976 34.3448C26.3318 33.9069 26.4 33.4513 26.3999 32.9933C26.7852 33.3182 27.1442 33.673 27.4736 34.0544C27.8832 34.5225 28.2469 35.0289 28.5596 35.5666C28.9879 36.2867 29.2906 37.0742 29.455 37.8957L26.1976 34.3448ZM37.4784 42.5333H32.1361C32.4108 41.7734 32.2366 40.9238 31.6851 40.3333L30.9466 39.5266C31.0915 38.299 30.8935 37.0552 30.3746 35.9333H38.2286L37.4784 42.5333ZM38.3951 34.4666H29.5951C29.2941 33.9836 28.9568 33.5242 28.586 33.0923C27.8643 32.2546 27.0171 31.534 26.0743 30.956C25.6434 29.5974 24.931 28.3447 23.9836 27.2798C23.7636 27.0305 23.5436 26.798 23.3126 26.5743L22.7333 20.4635C22.7035 20.1509 22.4779 19.892 22.1723 19.8197L21.5226 19.6657L21.3686 18.3332H40.2292L38.3951 34.4666ZM40.3956 16.8666H21.2021L20.6213 11.7333H40.9786L40.3956 16.8666ZM42.5332 10.2666H19.0666V8.79989C19.0666 8.39487 19.3949 8.06658 19.7999 8.06658H41.7999C42.205 8.06658 42.5332 8.39487 42.5332 8.79989V10.2666Z"
          fill="black"/>
    <path d="M31.1006 32.2667C31.1423 32.2667 31.1834 32.2609 31.2245 32.2594C31.2355 32.2594 31.2465 32.2667 31.2575 32.2667C31.2943 32.2645 31.3308 32.2593 31.3667 32.2513C32.5147 32.1738 33.5724 31.6017 34.2655 30.6835C35.1895 29.3853 35.4536 27.73 34.9798 26.2087C34.8778 25.8289 34.7847 25.4564 34.6945 25.0963C34.1225 22.8031 33.5762 20.6405 31.2596 20.543C31.2362 20.543 31.2142 20.5387 31.1907 20.5387C31.1672 20.5387 31.1328 20.5335 31.1005 20.5335C28.5089 20.5335 26.3998 23.1654 26.3998 26.4002C26.3998 29.635 28.5089 32.2667 31.1006 32.2667ZM31.6682 22.11C32.4264 22.4078 32.7601 23.4014 33.2719 25.4511C33.3636 25.8178 33.4589 26.202 33.5652 26.5914C33.9163 27.6723 33.7448 28.855 33.101 29.7916C32.8673 30.0982 32.5682 30.3487 32.2254 30.5249C32.2006 29.2643 31.9524 28.0181 31.4921 26.8443C31.4188 26.6156 31.3454 26.3948 31.2809 26.1843C30.8542 24.7963 31.3542 22.9973 31.6682 22.11ZM30.0922 22.22C29.615 23.6364 29.5416 25.1577 29.8802 26.6134C29.9477 26.8334 30.0225 27.0615 30.1002 27.2983C30.4669 28.4174 30.9069 29.7704 30.7272 30.7663C29.1198 30.5155 27.8665 28.6543 27.8665 26.4C27.8666 24.453 28.8016 22.8001 30.0922 22.22Z"
          fill="black"/>
    <path d="M3.88139 38.5631L3.36293 39.0816C3.17232 39.2657 3.09584 39.5383 3.16296 39.7948C3.23007 40.0512 3.43031 40.2514 3.68666 40.3185C3.9431 40.3856 4.21569 40.3091 4.39985 40.1185L4.91831 39.6C5.19624 39.3123 5.19228 38.8549 4.90938 38.572C4.62656 38.2891 4.16911 38.2852 3.88139 38.5631Z"
          fill="black"/>
    <path d="M10.8929 33.6263C11.1794 33.3398 11.1794 32.8752 10.8929 32.5886C10.6064 32.3021 10.1418 32.3021 9.8552 32.5886L9.33673 33.1071C9.15137 33.2923 9.07892 33.5624 9.14664 33.8155C9.21436 34.0686 9.41202 34.2664 9.6651 34.3343C9.91819 34.4022 10.1883 34.3299 10.3737 34.1447L10.8929 33.6263Z"
          fill="black"/>
    <path d="M4.39995 31.7482L3.88149 32.2667C3.69088 32.4509 3.61439 32.7234 3.68151 32.9799C3.74863 33.2362 3.94886 33.4365 4.20521 33.5036C4.46165 33.5707 4.73425 33.4942 4.91841 33.3036L5.43687 32.7851C5.71479 32.4974 5.71084 32.04 5.42793 31.7572C5.14511 31.4743 4.68767 31.4703 4.39995 31.7482Z"
          fill="black"/>
    <path d="M4.39995 26.6149L3.88149 27.1333C3.69088 27.3175 3.61439 27.5901 3.68151 27.8465C3.74863 28.1029 3.94886 28.3031 4.20521 28.3702C4.46165 28.4373 4.73425 28.3609 4.91841 28.1702L5.43687 27.6518C5.71479 27.3641 5.71084 26.9066 5.42793 26.6238C5.14511 26.341 4.68767 26.337 4.39995 26.6149Z"
          fill="black"/>
    <path d="M11 38.5631L10.4815 39.0816C10.2909 39.2657 10.2144 39.5383 10.2815 39.7948C10.3487 40.0512 10.5489 40.2514 10.8053 40.3185C11.0617 40.3856 11.3343 40.3091 11.5184 40.1185L12.0369 39.6C12.3148 39.3123 12.3109 38.8549 12.028 38.572C11.7451 38.2891 11.2877 38.2852 11 38.5631Z"
          fill="black"/>
    <path d="M16.3481 38.5631L15.8297 39.0815C15.6391 39.2657 15.5626 39.5383 15.6297 39.7947C15.6968 40.0512 15.897 40.2514 16.1534 40.3184C16.4098 40.3855 16.6824 40.3091 16.8666 40.1185L17.385 39.6C17.663 39.3123 17.659 38.8548 17.3761 38.572C17.0932 38.2892 16.6358 38.2852 16.3481 38.5631Z"
          fill="black"/>
  </g>
  <defs>
    <clipPath id="clip0_669_785">
      <rect width="44" height="44" fill="white"/>
    </clipPath>
  </defs>
</svg>
