<svg width="22" height="22" viewBox="0 0 22 22" fill="none" xmlns="http://www.w3.org/2000/svg">
<g id="timer 1" opacity="0.9">
<g id="Group">
<path id="Vector" d="M11.5748 2.5401V1.58126C11.5748 1.41919 11.5104 1.26375 11.3958 1.14914C11.2812 1.03454 11.1257 0.970154 10.9637 0.970154C10.8016 0.970154 10.6462 1.03454 10.5315 1.14914C10.4169 1.26375 10.3526 1.41919 10.3526 1.58126V2.5456C5.55045 2.87926 1.74445 6.88968 1.74445 11.7752C1.74445 16.8777 5.89664 21.0299 11 21.0299C16.1034 21.0299 20.2556 16.8777 20.2556 11.7752C20.2556 6.86524 16.4114 2.83801 11.5748 2.5401ZM11 19.8077C6.57039 19.8077 2.96667 16.2039 2.96667 11.7752C2.96667 7.34588 6.57039 3.74246 11 3.74246C15.4297 3.74246 19.0334 7.34588 19.0334 11.7752C19.0334 16.2039 15.4297 19.8077 11 19.8077Z" fill="#31352B"/>
<path id="Vector_2" d="M7.86296 17.3216C5.86799 16.1901 4.62866 14.0644 4.62866 11.7749C4.62866 11.6056 4.49208 11.4693 4.3231 11.4693C4.15413 11.4693 4.01755 11.6056 4.01755 11.7749C4.01755 14.2841 5.37574 16.6133 7.56169 17.8536C7.63223 17.8935 7.71576 17.9038 7.79389 17.8822C7.87202 17.8606 7.93836 17.8088 7.97831 17.7382C8.01826 17.6677 8.02855 17.5842 8.00692 17.506C7.98529 17.4279 7.93351 17.3616 7.86296 17.3216Z" fill="#31352B"/>
<path id="Vector_3" d="M9.52923 18.1598C9.41091 18.129 9.29343 18.0949 9.17693 18.0578C9.10021 18.0348 9.01754 18.0429 8.94672 18.0803C8.87589 18.1176 8.82257 18.1813 8.79822 18.2576C8.77387 18.3339 8.78044 18.4167 8.81653 18.4882C8.85261 18.5597 8.91531 18.6141 8.99115 18.6399C9.11826 18.6808 9.24598 18.7175 9.37646 18.7508C9.4549 18.771 9.53817 18.7593 9.60796 18.7181C9.67775 18.677 9.72835 18.6098 9.74862 18.5314C9.75868 18.4926 9.76098 18.4522 9.75539 18.4125C9.7498 18.3728 9.73643 18.3346 9.71605 18.3001C9.69567 18.2656 9.66868 18.2354 9.63662 18.2113C9.60456 18.1873 9.56807 18.1698 9.52923 18.1598Z" fill="#31352B"/>
<path id="Vector_4" d="M18.8854 5.72794C19.0002 5.84236 19.1557 5.90652 19.3177 5.90629C19.4798 5.90606 19.6351 5.84146 19.7495 5.72671C19.864 5.61196 19.9281 5.45646 19.9279 5.2944C19.9277 5.13235 19.8631 4.97703 19.7483 4.8626L18.1616 3.27983C18.1048 3.22311 18.0374 3.17814 17.9632 3.1475C17.889 3.11686 17.8095 3.10114 17.7293 3.10126C17.649 3.10137 17.5695 3.11731 17.4955 3.14816C17.4214 3.17901 17.3541 3.22417 17.2975 3.28105C17.1831 3.39585 17.119 3.55134 17.1193 3.71336C17.1195 3.87538 17.184 4.03068 17.2987 4.14516L18.8854 5.72794Z" fill="#31352B"/>
<path id="Vector_5" d="M11.5746 11.6612V6.77569C11.5746 6.61362 11.5102 6.45818 11.3956 6.34357C11.281 6.22897 11.1256 6.16458 10.9635 6.16458C10.8014 6.16458 10.646 6.22897 10.5314 6.34357C10.4168 6.45818 10.3524 6.61362 10.3524 6.77569V11.9252C10.3524 12.0936 10.4401 12.254 10.5623 12.3692L12.3507 14.0406C12.469 14.1518 12.6196 14.2074 12.7702 14.2074C12.8521 14.2075 12.9331 14.1905 13.008 14.1575C13.0828 14.1244 13.15 14.0761 13.2051 14.0155C13.4376 13.7699 13.4168 13.3833 13.1714 13.1517L11.5746 11.6612Z" fill="#31352B"/>
</g>
</g>
</svg>
