<?xml version="1.0" encoding="utf-8"?><svg viewBox="0 0 200 44" xmlns="http://www.w3.org/2000/svg" xmlns:xlink="http://www.w3.org/1999/xlink"><style>:root>svg{display:none}:root>svg:target{display:block}</style><svg viewBox="0 0 24 24" id="address" xmlns="http://www.w3.org/2000/svg"><g fill-rule="evenodd" clip-rule="evenodd"><path d="M14.5 10.5a2.5 2.5 0 1 0-5 0 2.5 2.5 0 0 0 5 0Z"/><path d="M12 21c-1.199 0-7.5-5.102-7.5-10.437C4.5 6.387 7.857 3 12 3c4.142 0 7.5 3.387 7.5 7.563C19.5 15.898 13.198 21 12 21Z"/></g></svg><svg viewBox="0 0 24 24" id="arrow" xmlns="http://www.w3.org/2000/svg"><path d="M13.121 6.293a1 1 0 0 0 0 1.414L16.413 11 6 11.007a1 1 0 0 0 0 2L16.414 13l-3.293 3.293a1 1 0 1 0 1.414 1.414l3.586-3.585a3 3 0 0 0 0-4.243l-3.586-3.586a1 1 0 0 0-1.414 0Z"/></svg><svg viewBox="0 0 11 19" id="arrow-left" xmlns="http://www.w3.org/2000/svg"><path d="M8.197 18.05.45 10.302a1.548 1.548 0 0 1 0-2.184L8.197.373a1.548 1.548 0 0 1 2.184 2.184L3.735 9.203l6.646 6.662c.601.604.601 1.58 0 2.184a1.548 1.548 0 0 1-2.184 0Z"/></svg><svg viewBox="0 0 44 44" id="asia" xmlns="http://www.w3.org/2000/svg"><g clip-path="url(#da)"><g clip-path="url(#db)"><path d="M15.132 13.567h2.124c.552 0 1 .448 1 1v1.465a.645.645 0 0 0 1.29 0v-1.465a2.292 2.292 0 0 0-2.29-2.29h-2.124a.984.984 0 0 1 0-1.965h4.711a2.275 2.275 0 0 0 2.272-2.273 2.275 2.275 0 0 0-2.272-2.272h-3.77a.645.645 0 0 0 0 1.29h3.77a.984.984 0 0 1 0 1.966h-4.711a2.275 2.275 0 0 0-2.273 2.272 2.275 2.275 0 0 0 2.273 2.272ZM7.389 17.892h2.108c.544 0 .987.443.987.988v1.454a.644.644 0 1 0 1.29 0V18.88a2.279 2.279 0 0 0-2.277-2.277H7.39a.972.972 0 0 1 0-1.94h2.465a.645.645 0 0 0 0-1.29H7.389a2.262 2.262 0 0 0-2.26 2.26 2.262 2.262 0 0 0 2.26 2.26ZM25.652 26.813a.645.645 0 1 0 0-1.29.645.645 0 0 0 0 1.29ZM28.832 28.273a.645.645 0 1 0 0-1.289.645.645 0 0 0 0 1.29ZM30.723 30.508a.645.645 0 1 0 0-1.29.645.645 0 0 0 0 1.29ZM28.059 25.266a.644.644 0 1 0 0-1.29.644.644 0 0 0 0 1.29ZM25.91 30.938a.645.645 0 1 0 0-1.29.645.645 0 0 0 0 1.29Z"/><path d="M42.911 22.811h-1.828l.904-1.868A2.507 2.507 0 0 0 44 18.49a2.506 2.506 0 0 0-2.102-2.47c-1.315-2.37-3.885-4.149-7.001-4.86v-.048a.645.645 0 0 0-1.264-.176 13.86 13.86 0 0 0-1.197-.1.644.644 0 0 0-1.163 0c-.405.017-.804.05-1.197.1a.644.644 0 0 0-1.264.176v.049c-3.116.71-5.686 2.49-7.001 4.859a2.506 2.506 0 0 0-2.093 2.685c-2.975.277-5.649 1.52-7.655 3.386h-4.05a.909.909 0 0 0-.69.318H5.43a2.118 2.118 0 0 0-1.957-1.337 2.106 2.106 0 0 0-2.082 2.397 2.107 2.107 0 0 0-1.066 3.104 2.106 2.106 0 0 0 1.778 3.229c.878 0 1.648-.554 1.958-1.337h1.704a.91.91 0 0 0 .586.623l2.02.686a10.898 10.898 0 0 0-.002 1.223c-.316.076-.61.207-.873.383a2.7 2.7 0 0 0-1.51-.46 2.721 2.721 0 0 0-2.717 2.719l.002.068h-.754a1.08 1.08 0 0 0-.985.624c-.181.385-.126.828.144 1.156l1.934 2.35c.207.252.514.397.84.397h27.26a.644.644 0 1 0 0-1.29H4.545l-1.604-1.948h39.544l-1.603 1.949h-6.164a.645.645 0 1 0 0 1.289h6.258c.327 0 .633-.145.84-.397l1.934-2.35a1.08 1.08 0 0 0 .144-1.156 1.079 1.079 0 0 0-.984-.624h-.638a5.411 5.411 0 0 0 .64-3.671.645.645 0 0 0-.52-.52 5.409 5.409 0 0 0-5.008 1.731c-.37-.2-.79-.316-1.237-.325v-1.226h.688c1.09 0 1.977-.887 1.977-1.977v-.865h4.1c.6 0 1.088-.488 1.088-1.088V23.9c0-.6-.488-1.089-1.089-1.089ZM6.291 33.706H4.56l-.002-.068a1.43 1.43 0 0 1 2.053-1.284c-.206.383-.323.82-.323 1.284 0 .023.002.045.003.068Zm32.225-1.784a4.116 4.116 0 0 1 3.184-1.195 4.118 4.118 0 0 1-1.005 2.98h-1.063l.881-.881a.644.644 0 1 0-.911-.912l-.914.913a2.712 2.712 0 0 0-.348-.717c.057-.064.115-.127.176-.188Zm-13.013-17.98a10.716 10.716 0 0 1 3.309-1.452v.663a.645.645 0 1 0 1.29 0v-.918c.364-.052.735-.087 1.108-.106v1.024a.645.645 0 1 0 1.289 0V12.13c.373.02.743.054 1.109.106v.918a.645.645 0 1 0 1.289 0v-.663c1.206.309 2.333.799 3.309 1.452.95.637 1.724 1.406 2.288 2.256a2.526 2.526 0 0 0-.604.375 2.506 2.506 0 0 0-1.607-.587c-.595 0-1.163.215-1.607.587a2.506 2.506 0 0 0-1.607-.587c-.595 0-1.163.215-1.607.587a2.506 2.506 0 0 0-1.608-.587c-.594 0-1.162.215-1.607.587a2.506 2.506 0 0 0-1.607-.587c-.594 0-1.162.215-1.607.587a2.506 2.506 0 0 0-1.607-.587c-.594 0-1.162.215-1.607.587a2.524 2.524 0 0 0-.605-.375c.565-.85 1.339-1.619 2.29-2.256Zm-3.291 3.333c.43 0 .832.233 1.05.607a.645.645 0 0 0 1.114 0c.217-.374.62-.607 1.05-.607.43 0 .832.233 1.05.607a.644.644 0 0 0 1.115 0c.217-.374.619-.607 1.05-.607.43 0 .832.233 1.049.607a.644.644 0 0 0 1.115 0c.217-.374.62-.607 1.05-.607.43 0 .832.233 1.049.607a.644.644 0 0 0 1.115 0c.217-.374.62-.607 1.05-.607.43 0 .832.233 1.05.607a.645.645 0 0 0 1.114 0c.217-.374.62-.607 1.05-.607.43 0 .832.233 1.05.607a.644.644 0 0 0 1.114 0c.218-.374.62-.607 1.05-.607.67 0 1.214.545 1.214 1.214 0 .67-.545 1.214-1.214 1.214-.43 0-.832-.233-1.05-.607a.645.645 0 0 0-1.114 0c-.218.374-.62.607-1.05.607-.43 0-.833-.233-1.05-.607a.645.645 0 0 0-1.115 0c-.217.374-.62.607-1.05.607-.43 0-.832-.233-1.049-.607a.644.644 0 0 0-1.115 0c-.217.374-.62.607-1.05.607-.43 0-.832-.233-1.05-.607a.645.645 0 0 0-1.114 0c-.218.374-.62.607-1.05.607-.43 0-.832-.233-1.05-.607a.645.645 0 0 0-1.114 0 1.22 1.22 0 0 1-.54.492 13.364 13.364 0 0 0-4.927-.942 1.215 1.215 0 0 1 1.202-1.37ZM8.392 23.38h2.472c-.255.316-.493.644-.712.983h-1.76v-.983Zm-2.66 3.796H3.558a.645.645 0 0 0-.643.59.818.818 0 0 1-.81.747.815.815 0 0 1-.519-1.443.645.645 0 0 0 0-.993.813.813 0 1 1 1.33-.697.645.645 0 0 0 .642.59h2.176v1.206Zm.221-2.494H4.061a2.128 2.128 0 0 0-1.36-1.248.814.814 0 1 1 1.583-.327.645.645 0 0 0 .642.591h2.177v.665h-.46a.91.91 0 0 0-.69.319Zm4.48 9.025H7.58a1.43 1.43 0 0 1 1.427-1.497 1.43 1.43 0 0 1 1.428 1.429l-.002.068Zm19.879 0h-2.244l-.002-.068a1.43 1.43 0 0 1 2.439-1.01 2.704 2.704 0 0 0-.196 1.01c0 .023.002.045.003.068Zm-.817-2.786a2.721 2.721 0 0 0-2.719 2.718c0 .023.002.045.003.068H11.722l.002-.068c0-1.273-.88-2.344-2.063-2.638a9.739 9.739 0 0 1-.016-.794l6.592 2.238a4.113 4.113 0 0 0 3.753-.556 4.106 4.106 0 0 0 1.732-3.375c0-.484-.083-.96-.247-1.412a.645.645 0 1 0-1.212.438c.113.312.17.64.17.974a2.83 2.83 0 0 1-1.195 2.327 2.83 2.83 0 0 1-2.587.383l-9.629-3.27v-2.302h10.55c.323 0 .641.055.946.162a.644.644 0 1 0 .427-1.217 4.144 4.144 0 0 0-1.373-.234h-5.845c2.056-2.676 5.438-4.427 9.256-4.427 6.253 0 11.34 4.695 11.34 10.467 0 .206-.006.412-.02.616-.389.108-.743.3-1.042.557a2.705 2.705 0 0 0-1.766-.655Zm4.959 2.786h-2.853a1.43 1.43 0 0 1 1.427-1.497c.787 0 1.428.641 1.428 1.429 0 .023 0 .046-.002.068Zm.404-2.486c-.102.053-.202.11-.297.175a2.704 2.704 0 0 0-.964-.413 10.977 10.977 0 0 0-.01-1.287h1.271v1.525Zm2.665 2.418c0 .023-.002.046-.003.068h-1.777l.002-.068a2.7 2.7 0 0 0-.313-1.266 1.43 1.43 0 0 1 2.09 1.265Zm0-5.92c0 .38-.309.688-.688.688h-3.407c-.098-.53-.232-1.05-.404-1.553h4.499v.865Zm5.188-2.154H32.493a11.526 11.526 0 0 0-.853-1.464h2.735a.645.645 0 0 0 0-1.29h-3.756a12.417 12.417 0 0 0-2.077-1.82l.098.002c.595 0 1.162-.215 1.607-.588a2.506 2.506 0 0 0 1.607.588c.595 0 1.163-.215 1.608-.588a2.506 2.506 0 0 0 1.607.588c.594 0 1.162-.215 1.607-.588a2.506 2.506 0 0 0 1.607.588c.594 0 1.162-.215 1.607-.588.215.18.459.323.72.423l-.96 1.984h-2.267a.644.644 0 1 0 0 1.289h5.328v1.464Z"/></g></g><defs><clipPath id="da"><path d="M0 0h44v44H0z"/></clipPath><clipPath id="db"><path d="M0 0h44v44H0z"/></clipPath></defs></svg><svg viewBox="0 0 44 44" id="burger" xmlns="http://www.w3.org/2000/svg"><g clip-path="url(#ea)"><path d="M44 20.336c0-1.69-1.09-3.128-2.602-3.653-.232-5.241-2.189-9.263-5.825-11.966C32.254 2.251 27.688 1 22 1 16.312 1 11.746 2.25 8.427 4.717 4.791 7.42 2.834 11.442 2.602 16.683A3.873 3.873 0 0 0 0 20.336c0 .99.374 1.893.988 2.578A3.851 3.851 0 0 0 0 25.492c0 1.7 1.103 3.146 2.63 3.663.553 5.89 5.56 10.517 11.636 10.517h15.468c6.076 0 11.084-4.627 11.636-10.517A3.873 3.873 0 0 0 44 25.492c0-.99-.374-1.893-.988-2.578A3.852 3.852 0 0 0 44 20.336ZM22 3.578c7.393 0 16.151 2.28 16.803 12.89H5.197C5.849 5.859 14.607 3.579 22 3.579ZM3.867 19.047h36.266c.71 0 1.289.578 1.289 1.289 0 .71-.578 1.289-1.29 1.289H3.868a1.29 1.29 0 0 1-1.289-1.29c0-.71.578-1.288 1.29-1.288Zm25.867 18.047H14.266c-4.581 0-8.383-3.367-9.016-7.735h1.195c.862 0 1.134.293 1.677.878.667.718 1.58 1.7 3.566 1.7 2 0 2.889-.993 3.538-1.718.513-.572.77-.86 1.618-.86.848 0 1.105.288 1.617.86.65.725 1.54 1.718 3.539 1.718 2 0 2.89-.993 3.538-1.718.513-.572.77-.86 1.618-.86.848 0 1.105.288 1.618.86.65.725 1.539 1.718 3.538 1.718 2 0 2.89-.993 3.539-1.718.513-.572.77-.86 1.618-.86h1.281c-.633 4.367-4.435 7.735-9.016 7.735ZM40.133 26.78h-2.664c-2 0-2.89.993-3.539 1.719-.512.572-.77.86-1.617.86-.848 0-1.106-.288-1.618-.86-.65-.726-1.539-1.719-3.539-1.719s-2.889.993-3.538 1.719c-.513.572-.77.86-1.618.86-.848 0-1.105-.288-1.618-.86-.65-.726-1.538-1.719-3.538-1.719-2 0-2.89.993-3.539 1.719-.512.572-.77.86-1.617.86-.862 0-1.135-.294-1.677-.878-.667-.718-1.58-1.7-3.566-1.7H3.867a1.29 1.29 0 0 1-1.289-1.29c0-.71.578-1.289 1.29-1.289h36.265a1.29 1.29 0 0 1 0 2.578Z"/><path d="M14.266 13.89a1.289 1.289 0 1 0 0-2.577 1.289 1.289 0 0 0 0 2.578ZM29.734 13.89a1.289 1.289 0 1 0 0-2.577 1.289 1.289 0 0 0 0 2.578ZM24.578 11.313a1.289 1.289 0 1 0 0-2.579 1.289 1.289 0 0 0 0 2.579ZM19.422 8.734a1.289 1.289 0 1 0 0-2.578 1.289 1.289 0 0 0 0 2.578Z"/></g><defs><clipPath id="ea"><path d="M0 0h44v44H0z"/></clipPath></defs></svg><svg viewBox="0 0 21 20" id="cart" xmlns="http://www.w3.org/2000/svg"><path d="m1 1.176 2.08.356.963 11.34c.077.926.86 1.636 1.8 1.633h10.909a1.794 1.794 0 0 0 1.785-1.528l.949-6.482a1.328 1.328 0 0 0-1.135-1.501c-.064-.009-14.937-.014-14.937-.014M12.375 8.633h2.773"/><path fill-rule="evenodd" clip-rule="evenodd" d="M5.404 17.932a.54.54 0 0 1 .544.538.541.541 0 0 1-.544.539.541.541 0 0 1-.544-.54.54.54 0 0 1 .544-.537ZM16.685 17.932c.3 0 .545.24.545.538a.542.542 0 0 1-.545.539.541.541 0 0 1-.544-.54.54.54 0 0 1 .544-.537Z"/></svg><svg viewBox="0 0 18 18" id="close" xmlns="http://www.w3.org/2000/svg"><g clip-path="url(#ga)"><path d="m10.055 9.005 7.716-7.716A.75.75 0 1 0 16.71.23L8.995 7.945 1.28.23A.75.75 0 0 0 .22 1.29l7.716 7.716L.22 16.721a.75.75 0 0 0 1.06 1.06l7.716-7.716 7.716 7.716a.75.75 0 0 0 1.06-1.06l-7.716-7.716Z"/></g><defs><clipPath id="ga"><path d="M0 0h18v18H0z"/></clipPath></defs></svg><svg viewBox="0 0 34 34" id="delivery" xmlns="http://www.w3.org/2000/svg"><path d="m6.518 24.469.407.97c.288-.117.587-.205.893-.26l-.19-1.034c-.38.069-.753.177-1.11.324ZM3.727 27.075l.956.458a4.322 4.322 0 0 1 1.46-1.676l-.6-.867a5.378 5.378 0 0 0-1.816 2.085Z"/><path d="M32.938 26.78c0-.905-.337-1.777-.948-2.45l-.791.7c.314.346.529.769.623 1.225h-3.666a.536.536 0 0 0-.442.233l-1.967 2.917h-1.31V27.83a3.659 3.659 0 0 1 1.09-2.598 3.745 3.745 0 0 1 2.63-1.078h1.062c.522 0 1.033.152 1.468.438l.588-.875a3.723 3.723 0 0 0-1.525-.575v-1.613a.522.522 0 0 0-.156-.371.534.534 0 0 0-.375-.154 2.14 2.14 0 0 1-1.502-.616 2.09 2.09 0 0 1-.623-1.485v-2.1h1.593c.141 0 .276-.055.376-.154a.522.522 0 0 0 .156-.37v-3.677a.522.522 0 0 0-.156-.37.535.535 0 0 0-.375-.154h-.938c-.221 0-.442.03-.656.089v-.615a.521.521 0 0 0-.117-.328L25.24 9.077a1.82 1.82 0 0 0-.43-2.366 1.873 1.873 0 0 0-2.43.078 1.822 1.822 0 0 0-.274 2.388 1.86 1.86 0 0 0 1.06.74c.432.112.89.067 1.291-.127l1.575 1.947v.662l-2.335-.77a1.448 1.448 0 0 0-.476-.077h-4.382l-2.522-2.908A1.58 1.58 0 0 0 17 7.352v-.2l.769-.38a.53.53 0 0 0 .276-.336.518.518 0 0 0-.072-.426l-.872-1.293a.532.532 0 0 0 .309-.182.52.52 0 0 0 .121-.334c0-.835-.337-1.636-.934-2.226a3.21 3.21 0 0 0-2.253-.924c-1 0-1.927.284-2.616 1.036a3.123 3.123 0 0 0-.808 2.427l.113 1.124c.048.484.282.932.655 1.25v9.915c0 .37.098.731.285 1.05h-.817c-.18 0-.36.03-.531.09v-6.916c0-.417-.168-.818-.467-1.113a1.605 1.605 0 0 0-1.127-.462H2.656c-.422 0-.827.167-1.126.462a1.568 1.568 0 0 0-.468 1.113v2.626h1.063v-1.05h7.438v5.25H2.125v-3.15H1.062v4.287c0 .246.088.485.247.673.16.19.381.317.626.36l4.971.894v1.232c-.45.103-.89.247-1.314.43H2.656a.534.534 0 0 0-.375.154.522.522 0 0 0-.156.371v2.492a7.393 7.393 0 0 0-1.063 3.81c0 .139.056.272.156.37.1.099.235.154.376.154h2.435c.317.776.862 1.44 1.564 1.908a4.286 4.286 0 0 0 4.752 0 4.211 4.211 0 0 0 1.564-1.908h8.932a2.687 2.687 0 0 0 1.966-.859l.568-.618v1.477c0 .14.056.273.156.372.1.098.234.153.375.153h1.101c.468.801 1.19 1.427 2.054 1.78a4.297 4.297 0 0 0 2.727.177 4.253 4.253 0 0 0 2.271-1.5 4.17 4.17 0 0 0 .705-3.745.522.522 0 0 0 .173-.387ZM22.843 8.14a.782.782 0 0 1 .492-.728.805.805 0 0 1 .868.17.786.786 0 0 1 .173.859.803.803 0 0 1-1.3.255.784.784 0 0 1-.233-.557Zm-7.6 18.64c-.52 0-1.02-.205-1.387-.569a1.93 1.93 0 0 1-.576-1.37c0-.516.132-.998.48-1.395.31-.353.737-.583 1.205-.65a2.377 2.377 0 0 0 1.454-.783c.374-.426.58-.97.58-1.534a.518.518 0 0 0-.156-.372 1.56 1.56 0 0 0 .065-1.203h1.443l-2.332 5.99a1.208 1.208 0 0 0-.082.453v1.433h-.694ZM17 25.73h2.656a.535.535 0 0 1 .508.372.52.52 0 0 1-.213.59 1.074 1.074 0 0 1-.424.088H17v-1.05Zm4.123-.092a1.582 1.582 0 0 0-.484-.623 1.608 1.608 0 0 0-.727-.315l2.2-5.235a3.03 3.03 0 0 0-.284-2.875 3.085 3.085 0 0 0-1.116-1 3.126 3.126 0 0 0-1.46-.362H17v-.833l.156.154a.533.533 0 0 0 .375.154h5.404a1.557 1.557 0 0 0 .201 1.435 1.607 1.607 0 0 0 1.301.666h.002a2.592 2.592 0 0 0-.533 1.575v4.073c0 .278-.112.545-.311.742l-2.472 2.444Zm3.314-9.885a.535.535 0 0 1-.49-.324.52.52 0 0 1 .115-.572.532.532 0 0 1 .579-.114.53.53 0 0 1 .328.485c0 .14-.056.273-.156.371a.535.535 0 0 1-.375.154Zm3.72-2.625v2.625h-1.063v-2.462a1.41 1.41 0 0 1 .656-.163h.406Zm-2.126 2.1a1.56 1.56 0 0 0-.673-1.286 1.603 1.603 0 0 0-1.452-.199v-.937l2.125.7v1.722Zm-7.437-2.626h4.25v1.05H17.75l-3.032-2.996-.75.743 1.969 1.946v1.883H12.75V8.927h2.412l3.028 3.492a.53.53 0 0 0 .404.183Zm-6.078-9.81c.485-.53 1.13-.691 1.828-.691.47 0 .928.155 1.3.44.373.286.64.685.757 1.135h-2.057a.535.535 0 0 0-.376.154.522.522 0 0 0-.155.371v1.247a.848.848 0 0 1-.24.586.868.868 0 0 1-1.482-.5l-.114-1.124a2.054 2.054 0 0 1 .539-1.618Zm.433 4.56c.51 0 1-.202 1.361-.558.361-.357.564-.841.565-1.346v-.722h1.063a.52.52 0 0 0 .089.292l.728 1.08-.524.26a.53.53 0 0 0-.294.469v.525c0 .139-.056.272-.155.37a.535.535 0 0 1-.376.155H12.75V7.34c.066.007.133.01.2.01Zm-.199 9.451v-.525h6.501c.335 0 .665.082.96.238.296.156.547.382.733.657a1.997 1.997 0 0 1 .187 1.889l-2.36 5.617h-1.529l2.379-6.112a.52.52 0 0 0-.249-.653.536.536 0 0 0-.247-.06h-5.313a1.07 1.07 0 0 1-.75-.309 1.045 1.045 0 0 1-.312-.742Zm-1.594 2.1h4.25c.141 0 .276.056.376.154a.522.522 0 0 1-.376.897h-4.25a.534.534 0 0 1-.375-.154.522.522 0 0 1 .375-.896Zm-9.031-7.35v-.526c0-.139.056-.272.156-.37a.535.535 0 0 1 .375-.155h6.375c.141 0 .276.056.376.154.1.099.155.232.155.371v.525H2.125Zm0 7.35h7.438v1.05H7.485l-5.36-.963v-.086Zm1.72 4.726c-.231.185-.45.384-.658.594v-.594h.657Zm4.124 7.877a3.24 3.24 0 0 1-1.592-.426 3.194 3.194 0 0 1-1.168-1.15h1.356a2.136 2.136 0 0 0 2.808 0h1.356a3.193 3.193 0 0 1-1.169 1.15 3.24 3.24 0 0 1-1.591.426Zm14.051-3.141a1.595 1.595 0 0 1-1.18.515H2.148a6.358 6.358 0 0 1 1.592-3.701 6.487 6.487 0 0 1 3.513-2.03 2.01 2.01 0 0 1 .418-.045h3.486v-1.05H7.97v-1.05h7.856a1.314 1.314 0 0 1-1.01.753c-.72.102-1.38.458-1.857 1-.514.586-.74 1.318-.74 2.083 0 .712.258 1.4.726 1.94H8.5v1.05h11.027a2.176 2.176 0 0 0 1.503-.615l3.316-3.278c.398-.395.621-.928.623-1.485v-4.074c0-.325.102-.643.293-.909.19-.266.459-.467.77-.576v2.01c0 .745.267 1.465.753 2.033.486.569 1.16.95 1.902 1.074v1.094c-.33 0-.667-.02-.995.023a4.82 4.82 0 0 0-2.683 1.15 4.727 4.727 0 0 0-1.507 2.476l-1.482 1.612Zm6.42-1.06h.027l.642.634a.588.588 0 0 1 .074.743.594.594 0 0 1-.612.25.597.597 0 0 1-.305-.16l-.489-.484.663-.983Zm.247 4.2c-.46 0-.914-.1-1.332-.291a3.2 3.2 0 0 1-1.09-.813.528.528 0 0 0 .208-.18l.46-.682c.257.37.626.65 1.055.799.428.148.893.156 1.327.024a2.123 2.123 0 0 0 1.083-.76 2.083 2.083 0 0 0 .129-2.297h1.166a3.118 3.118 0 0 1-.403 2.869 3.178 3.178 0 0 1-1.137.978 3.218 3.218 0 0 1-1.465.354Z"/><path d="M4.25 13.652H3.187v3.15H4.25v-3.15Z"/></svg><svg viewBox="0 0 24 24" id="email" xmlns="http://www.w3.org/2000/svg"><path d="m17.903 8.851-4.444 3.613c-.84.666-2.02.666-2.86 0L6.12 8.851"/><path fill-rule="evenodd" clip-rule="evenodd" d="M16.909 21C19.95 21.008 22 18.51 22 15.438V8.57C22 5.499 19.95 3 16.909 3H7.09C4.05 3 2 5.499 2 8.57v6.868C2 18.51 4.05 21.008 7.091 21h9.818Z"/></svg><svg viewBox="0 0 39 39" id="facebook" xmlns="http://www.w3.org/2000/svg"><circle cx="19.5" cy="19.5" r="19.5"/><path d="M17.547 29.526v-9.631H15v-3.468h2.547v-2.962c0-2.328 1.504-4.465 4.97-4.465 1.404 0 2.442.135 2.442.135l-.082 3.238s-1.058-.01-2.213-.01c-1.25 0-1.45.576-1.45 1.532v2.532h3.763l-.164 3.468h-3.6v9.631h-3.666Z"/></svg><svg viewBox="0 0 39 39" id="instagram" xmlns="http://www.w3.org/2000/svg"><circle cx="19.5" cy="19.5" r="19.5"/><path d="M19.748 16.499a3.258 3.258 0 0 0-3.252 3.251 3.258 3.258 0 0 0 3.252 3.251 3.258 3.258 0 0 0 3.25-3.251 3.258 3.258 0 0 0-3.25-3.251Zm9.751 3.251c0-1.346.013-2.68-.063-4.025-.076-1.56-.432-2.946-1.573-4.088-1.144-1.144-2.527-1.497-4.088-1.573-1.347-.075-2.681-.063-4.025-.063-1.346 0-2.68-.012-4.025.063-1.56.076-2.946.432-4.088 1.573-1.144 1.144-1.497 2.527-1.573 4.088-.075 1.347-.063 2.681-.063 4.025 0 1.344-.012 2.68.063 4.025.076 1.56.432 2.946 1.573 4.088 1.144 1.144 2.527 1.497 4.088 1.573 1.347.076 2.681.063 4.025.063 1.346 0 2.68.013 4.025-.063 1.56-.076 2.946-.432 4.088-1.573 1.144-1.144 1.497-2.527 1.573-4.088.078-1.344.063-2.679.063-4.025Zm-9.751 5.003a4.996 4.996 0 0 1-5.003-5.003 4.996 4.996 0 0 1 5.003-5.003 4.996 4.996 0 0 1 5.002 5.003 4.996 4.996 0 0 1-5.002 5.003Zm5.207-9.042a1.167 1.167 0 0 1-1.168-1.169c0-.646.522-1.168 1.168-1.168a1.167 1.167 0 0 1 .827 1.995 1.166 1.166 0 0 1-.827.342Z"/></svg><svg viewBox="0 0 200 39" id="logo" xmlns="http://www.w3.org/2000/svg"><path d="M10.593 31.33c-1.958 0-3.641-.297-5.049-.891-1.408-.594-2.475-1.375-3.201-2.343s-1.111-2.013-1.155-3.135c0-.198.066-.363.198-.495a.672.672 0 0 1 .495-.198h2.937c.264 0 .462.055.594.165.154.088.297.242.429.462.22.748.726 1.375 1.518 1.881s1.87.759 3.234.759c1.562 0 2.739-.253 3.531-.759.792-.528 1.188-1.254 1.188-2.178 0-.616-.209-1.122-.627-1.518-.396-.396-1.001-.737-1.815-1.023-.792-.286-1.98-.638-3.564-1.056-2.596-.616-4.499-1.43-5.709-2.442-1.188-1.034-1.782-2.497-1.782-4.389 0-1.276.341-2.409 1.023-3.399.704-.99 1.705-1.771 3.003-2.343 1.32-.572 2.849-.858 4.587-.858 1.804 0 3.366.319 4.686.957 1.32.638 2.321 1.441 3.003 2.409.704.946 1.078 1.892 1.122 2.838a.672.672 0 0 1-.198.495.672.672 0 0 1-.495.198h-3.069c-.462 0-.781-.209-.957-.627-.132-.704-.572-1.287-1.32-1.749-.748-.484-1.672-.726-2.772-.726-1.232 0-2.2.231-2.904.693-.704.462-1.056 1.133-1.056 2.013 0 .616.176 1.122.528 1.518.352.396.902.748 1.65 1.056.77.308 1.87.649 3.3 1.023 1.936.44 3.476.935 4.62 1.485 1.166.55 2.024 1.243 2.574 2.079.55.836.825 1.903.825 3.201 0 1.408-.396 2.64-1.188 3.696-.77 1.034-1.87 1.826-3.3 2.376-1.408.55-3.036.825-4.884.825ZM25.43 11.002a.764.764 0 0 1-.561-.231.764.764 0 0 1-.231-.561V7.834c0-.22.077-.407.23-.561a.764.764 0 0 1 .562-.231h3.003c.22 0 .407.077.56.231a.719.719 0 0 1 .265.561v2.376c0 .22-.077.407-.231.561a.804.804 0 0 1-.594.231H25.43ZM25.562 31a.764.764 0 0 1-.561-.231.764.764 0 0 1-.231-.561V14.632c0-.22.077-.407.23-.561a.764.764 0 0 1 .562-.231H28.3c.242 0 .429.077.56.231.155.132.232.319.232.561v15.576c0 .22-.077.407-.231.561-.132.154-.32.231-.561.231h-2.74Zm10.12 0a.764.764 0 0 1-.561-.231.764.764 0 0 1-.231-.561V14.632c0-.22.077-.407.231-.561a.764.764 0 0 1 .561-.231h2.574c.22 0 .407.077.561.231a.764.764 0 0 1 .231.561v1.122c1.144-1.496 2.739-2.244 4.785-2.244 2.442 0 4.147.979 5.115 2.937.528-.88 1.276-1.584 2.244-2.112a6.24 6.24 0 0 1 3.135-.825c1.804 0 3.278.616 4.422 1.848 1.144 1.232 1.716 3.025 1.716 5.379v9.471c0 .22-.077.407-.231.561-.132.154-.319.231-.561.231h-2.706a.764.764 0 0 1-.561-.231.764.764 0 0 1-.231-.561v-9.207c0-1.386-.297-2.387-.891-3.003-.572-.638-1.342-.957-2.31-.957-.858 0-1.595.319-2.211.957-.594.638-.891 1.639-.891 3.003v9.207c0 .22-.077.407-.231.561a.764.764 0 0 1-.561.231h-2.706a.764.764 0 0 1-.561-.231.764.764 0 0 1-.231-.561v-9.207c0-1.386-.308-2.387-.924-3.003-.594-.638-1.353-.957-2.277-.957-.88 0-1.628.319-2.244.957-.594.638-.891 1.639-.891 3.003v9.207c0 .22-.077.407-.231.561a.764.764 0 0 1-.561.231h-2.772Zm31.23 6.27a.764.764 0 0 1-.562-.231c-.154-.132-.23-.319-.23-.561V14.632c0-.242.076-.429.23-.561a.764.764 0 0 1 .561-.231h2.607c.242 0 .43.077.561.231.154.132.231.319.231.561v1.32c1.232-1.628 2.992-2.442 5.28-2.442 2.222 0 3.927.704 5.115 2.112 1.188 1.386 1.826 3.267 1.914 5.643.022.264.033.649.033 1.155 0 .528-.01.924-.033 1.188-.088 2.31-.726 4.18-1.914 5.61-1.188 1.408-2.893 2.112-5.115 2.112-2.222 0-3.916-.781-5.082-2.343v7.491c0 .242-.077.429-.23.561-.133.154-.32.231-.562.231h-2.805Zm7.457-9.471c2.376 0 3.641-1.463 3.795-4.389.022-.22.033-.55.033-.99 0-.44-.01-.77-.033-.99-.154-2.926-1.419-4.389-3.795-4.389-1.276 0-2.222.407-2.838 1.221-.616.814-.957 1.815-1.023 3.003l-.033 1.254.033 1.287c.044 1.1.385 2.046 1.023 2.838.66.77 1.606 1.155 2.838 1.155ZM88.601 31a.764.764 0 0 1-.561-.231.764.764 0 0 1-.231-.561V8.362c0-.242.077-.429.23-.561a.764.764 0 0 1 .562-.231h2.739c.242 0 .429.077.56.231.155.132.232.319.232.561v21.846c0 .22-.077.407-.231.561-.132.154-.32.231-.561.231H88.6Zm16.719.33c-2.442 0-4.389-.704-5.84-2.112-1.43-1.43-2.19-3.432-2.278-6.006l-.033-.825.033-.825c.11-2.508.88-4.477 2.31-5.907 1.452-1.43 3.388-2.145 5.808-2.145 2.596 0 4.598.792 6.006 2.376 1.43 1.584 2.145 3.696 2.145 6.336v.693c0 .22-.077.407-.231.561a.804.804 0 0 1-.594.231H101.69v.264c.044 1.21.374 2.233.99 3.069.638.814 1.507 1.221 2.607 1.221 1.298 0 2.343-.506 3.135-1.518.198-.242.352-.396.462-.462.132-.066.319-.099.561-.099h2.838c.198 0 .363.066.495.198.154.11.231.253.231.429 0 .528-.319 1.155-.957 1.881-.616.704-1.507 1.32-2.673 1.848-1.166.528-2.519.792-4.059.792Zm3.663-10.395v-.099c0-1.298-.33-2.343-.99-3.135-.638-.792-1.529-1.188-2.673-1.188-1.144 0-2.035.396-2.673 1.188-.638.792-.957 1.837-.957 3.135v.099h7.293ZM119.581 31a.764.764 0 0 1-.561-.231.764.764 0 0 1-.231-.561V8.725a.88.88 0 0 1 .198-.594.804.804 0 0 1 .594-.231h14.322c.242 0 .44.077.594.231a.804.804 0 0 1 .231.594v2.31c0 .242-.077.44-.231.594a.88.88 0 0 1-.594.198H123.31v6.27h9.933c.242 0 .44.077.594.231a.804.804 0 0 1 .231.594v2.31c0 .242-.077.44-.231.594a.88.88 0 0 1-.594.198h-9.933v8.184c0 .242-.077.44-.231.594a.88.88 0 0 1-.594.198h-2.904Zm27.318.33c-2.574 0-4.565-.66-5.973-1.98-1.408-1.342-2.167-3.168-2.277-5.478l-.033-1.452.033-1.452c.11-2.288.88-4.103 2.31-5.445 1.43-1.342 3.41-2.013 5.94-2.013 2.53 0 4.51.671 5.94 2.013 1.43 1.342 2.2 3.157 2.31 5.445.022.264.033.748.033 1.452s-.011 1.188-.033 1.452c-.11 2.31-.869 4.136-2.277 5.478-1.408 1.32-3.399 1.98-5.973 1.98Zm0-3.267c1.166 0 2.068-.363 2.706-1.089.638-.748.99-1.837 1.056-3.267.022-.22.033-.649.033-1.287 0-.638-.011-1.067-.033-1.287-.066-1.43-.418-2.508-1.056-3.234-.638-.748-1.54-1.122-2.706-1.122s-2.068.374-2.706 1.122c-.638.726-.99 1.804-1.056 3.234l-.033 1.287.033 1.287c.066 1.43.418 2.519 1.056 3.267.638.726 1.54 1.089 2.706 1.089Zm20.949 3.267c-2.574 0-4.565-.66-5.973-1.98-1.408-1.342-2.167-3.168-2.277-5.478l-.033-1.452.033-1.452c.11-2.288.88-4.103 2.31-5.445 1.43-1.342 3.41-2.013 5.94-2.013 2.53 0 4.51.671 5.94 2.013 1.43 1.342 2.2 3.157 2.31 5.445.022.264.033.748.033 1.452s-.011 1.188-.033 1.452c-.11 2.31-.869 4.136-2.277 5.478-1.408 1.32-3.399 1.98-5.973 1.98Zm0-3.267c1.166 0 2.068-.363 2.706-1.089.638-.748.99-1.837 1.056-3.267.022-.22.033-.649.033-1.287 0-.638-.011-1.067-.033-1.287-.066-1.43-.418-2.508-1.056-3.234-.638-.748-1.54-1.122-2.706-1.122s-2.068.374-2.706 1.122c-.638.726-.99 1.804-1.056 3.234l-.033 1.287.033 1.287c.066 1.43.418 2.519 1.056 3.267.638.726 1.54 1.089 2.706 1.089Zm19.727 3.267c-2.222 0-3.927-.715-5.115-2.145-1.188-1.43-1.826-3.333-1.914-5.709l-.033-1.089.033-1.056c.066-2.31.693-4.191 1.881-5.643 1.21-1.452 2.926-2.178 5.148-2.178 2.134 0 3.828.726 5.082 2.178V8.362c0-.242.077-.429.231-.561a.764.764 0 0 1 .561-.231h2.805c.242 0 .429.077.561.231.154.132.231.319.231.561v21.846c0 .22-.077.407-.231.561-.132.154-.319.231-.561.231h-2.607a.764.764 0 0 1-.561-.231.764.764 0 0 1-.231-.561v-1.221c-1.254 1.562-3.014 2.343-5.28 2.343Zm1.221-3.531c1.276 0 2.222-.407 2.838-1.221.616-.814.957-1.815 1.023-3.003.022-.264.033-.693.033-1.287 0-.572-.011-.99-.033-1.254-.044-1.1-.396-2.035-1.056-2.805-.638-.792-1.573-1.188-2.805-1.188-2.376 0-3.641 1.463-3.795 4.389l-.033.99.033.99c.154 2.926 1.419 4.389 3.795 4.389Z"/></svg><svg viewBox="0 0 24 24" id="phone" xmlns="http://www.w3.org/2000/svg"><path d="M14.353 2.5a7.97 7.97 0 0 1 7.04 7.032M14.353 6.043a4.426 4.426 0 0 1 3.5 3.5"/><path fill-rule="evenodd" clip-rule="evenodd" d="M11.031 12.472c3.99 3.988 4.894-.625 7.434 1.913 2.449 2.448 3.857 2.938.754 6.04-.389.312-2.858 4.07-11.535-4.605C-.993 7.144 2.762 4.672 3.074 4.284c3.11-3.11 3.593-1.695 6.041.753 2.54 2.54-2.072 3.447 1.916 7.435Z"/></svg><svg viewBox="0 0 44 44" id="pizza" xmlns="http://www.w3.org/2000/svg"><g clip-path="url(#na)"><path d="M43.745 43.752a.859.859 0 0 1-.892.198L7.159 31.223a4.698 4.698 0 0 1-4.256.338A4.706 4.706 0 0 1 .359 25.42a46.08 46.08 0 0 1 10.038-15.023A46.078 46.078 0 0 1 25.42.358 4.675 4.675 0 0 1 27.213 0c1.846 0 3.6 1.094 4.35 2.902a4.687 4.687 0 0 1-.026 3.65l12.418 36.31a.86.86 0 0 1-.21.89ZM12.563 31.325l3.783 1.349a2.186 2.186 0 0 0-.264-3.235 2.176 2.176 0 0 0-1.62-.434 2.176 2.176 0 0 0-1.451.838c-.329.428-.485.95-.448 1.482ZM29.974 3.56a2.985 2.985 0 0 0-3.896-1.614C15.075 6.504 6.505 15.074 1.947 26.077a2.962 2.962 0 0 0 0 2.282 2.963 2.963 0 0 0 1.614 1.614 2.963 2.963 0 0 0 2.282 0 2.963 2.963 0 0 0 1.614-1.613 38.432 38.432 0 0 1 8.373-12.531 38.434 38.434 0 0 1 12.53-8.373 2.985 2.985 0 0 0 1.614-3.896Zm7.635 26.06a2.176 2.176 0 0 0-1.685.855 2.176 2.176 0 0 0-.434 1.62 2.193 2.193 0 0 0 2.458 1.885c.37-.048.716-.192 1.012-.41l-1.35-3.95Zm1.922 5.621a3.91 3.91 0 1 1-2.493-7.29l-1.708-4.995-1.964 1.507a.86.86 0 0 1-1.047-1.363l2.424-1.86-4.442-12.99a4.68 4.68 0 0 1-1.282.794C19.91 12.817 12.817 19.91 9.044 29.017c-.13.317-.294.611-.482.882l2.301.82c.08-.693.347-1.354.783-1.922a3.883 3.883 0 0 1 3.11-1.53c.854 0 1.681.279 2.371.808a3.884 3.884 0 0 1 1.496 2.591c.123.93-.094 1.85-.581 2.613l10.682 3.809.405-.978a.86.86 0 0 1 1.588.658l-.372.898 11.406 4.066-2.22-6.49Z"/><path d="m9.281 20.945-.012.019a.858.858 0 0 1-1.431-.952.86.86 0 0 1 1.443.933ZM7.974 23.08a40.676 40.676 0 0 0-2.237 4.567.86.86 0 0 1-1.588-.657 42.393 42.393 0 0 1 2.332-4.761.86.86 0 1 1 1.493.851ZM26.893 33.001a3.918 3.918 0 0 1-4.386-3.365 3.914 3.914 0 0 1 3.88-4.42 3.918 3.918 0 0 1 3.871 3.4A3.914 3.914 0 0 1 26.893 33Zm1.661-4.161a2.195 2.195 0 0 0-2.458-1.886 2.193 2.193 0 0 0-1.885 2.457 2.194 2.194 0 0 0 2.457 1.886 2.193 2.193 0 0 0 1.886-2.457ZM26.669 22.312a3.918 3.918 0 0 1-4.386-3.365 3.883 3.883 0 0 1 .774-2.89 3.884 3.884 0 0 1 3.105-1.53 3.918 3.918 0 0 1 3.872 3.399 3.914 3.914 0 0 1-3.365 4.386Zm1.661-4.162a2.195 2.195 0 0 0-2.457-1.886 2.176 2.176 0 0 0-1.452.838 2.176 2.176 0 0 0-.434 1.62 2.195 2.195 0 0 0 2.458 1.886 2.193 2.193 0 0 0 1.885-2.458ZM21.001 25.872l-2.641.348a.86.86 0 1 1-.225-1.704l2.641-.348a.86.86 0 0 1 .225 1.704ZM19.662 19.53l-.234 1.772a.859.859 0 1 1-1.704-.224l.234-1.772a.86.86 0 0 1 1.704.224Z"/></g><defs><clipPath id="na"><path transform="matrix(1 0 0 -1 0 44)" d="M0 0h44v44H0z"/></clipPath></defs></svg><svg viewBox="0 0 24 20" id="quote" xmlns="http://www.w3.org/2000/svg"><path d="M5.217 9.565c1.276.116 2.32.609 3.13 1.479.812.869 1.218 1.97 1.218 3.304 0 1.45-.435 2.637-1.304 3.565-.87.87-1.971 1.304-3.304 1.304-1.508 0-2.725-.55-3.653-1.652C.434 16.464 0 14.754 0 12.435 0 7.97 1.478 4.115 4.435.87c.58-.58 1.246-.87 2-.87.637 0 1.188.232 1.652.696.464.405.696.898.696 1.478 0 .638-.232 1.188-.696 1.652-1.507 1.565-2.464 3.478-2.87 5.74Zm14.435 0c1.275.116 2.319.609 3.13 1.479.812.869 1.218 1.97 1.218 3.304 0 1.45-.435 2.637-1.304 3.565-.87.87-1.971 1.304-3.305 1.304-1.507 0-2.724-.55-3.652-1.652-.87-1.101-1.304-2.811-1.304-5.13 0-4.464 1.478-8.32 4.435-11.565.58-.58 1.246-.87 2-.87.637 0 1.188.232 1.652.696.463.405.695.898.695 1.478 0 .638-.232 1.188-.695 1.652-1.507 1.565-2.464 3.478-2.87 5.74Z"/></svg><svg viewBox="0 0 44 44" id="sandwich" xmlns="http://www.w3.org/2000/svg"><g clip-path="url(#pa)"><path d="M41.8 6.6h-1.467V5.133a2.2 2.2 0 0 0-2.2-2.2h-1.747L35.326.811A1.457 1.457 0 0 0 34.012 0H33c-.81 0-1.467.657-1.467 1.467v1.466h-8.066a2.2 2.2 0 0 0-2.2 2.2V6.6H19.8a2.2 2.2 0 0 0-2.2 2.2v1.467c0 .81.657 1.466 1.467 1.466h.077l.858 7.577-3.533-.83a11.127 11.127 0 0 0-.576-.813L14.646 12.3a.733.733 0 0 0-.713-.568H9.72C7.73 9.981 5.382 9.19 3.61 9.711L2.532 8.537a1.448 1.448 0 0 0-1.605-.366c-.56.216-.93.755-.928 1.355v32.289A2.188 2.188 0 0 0 2.185 44h35.948c.373 0 .686-.28.728-.65l3.593-31.617h.08c.81 0 1.466-.657 1.466-1.466V8.8a2.2 2.2 0 0 0-2.2-2.2ZM33 1.467h1.013l.734 1.466H33V1.467ZM22.733 5.133c0-.405.329-.733.734-.733h14.666c.405 0 .734.328.734.733V6.6H22.733V5.133Zm-2.053 15.84.046.009.593.14.397 4.162a6.758 6.758 0 0 0-3.94-1.242 6.28 6.28 0 0 0-.411-3.848l3.315.78Zm1.433 6.487.01.008c.265.245.517.505.755.778a8.686 8.686 0 0 1 1.876 3.388c.124.437.188.89.19 1.344l-6.85-7.47c1.524.17 2.943.86 4.019 1.952Zm-7.728-9.32v-.002c1.583 1.819 2.32 4.003 1.97 5.472l-7.463-8.137c1.505-.336 3.795.721 5.493 2.667Zm-1.038-4.94.586 2.497a9.342 9.342 0 0 0-1.913-1.154 11.558 11.558 0 0 0-.928-1.343h2.255Zm-3.687.546h.003c.06.07.11.146.17.22a3.99 3.99 0 0 0-2.012.338l-3.015-3.288c1.474.021 3.398 1.058 4.854 2.73Zm21.077 28.356a.717.717 0 0 1-.656.431H2.185a.719.719 0 0 1-.718-.718L1.453 9.533l14.72 16.048v.004l8.644 9.424.01.011 4.74 5.172c.018.022.035.044.055.065l.983 1.072a.716.716 0 0 1 .132.773Zm-4.54-7.757a4.61 4.61 0 0 0 .203-1.352c.385.325.744.68 1.074 1.061.41.468.773.975 1.086 1.513.428.72.73 1.507.895 2.329l-3.257-3.551Zm11.281 8.188h-5.342c.275-.76.1-1.61-.45-2.2l-.74-.806a6.691 6.691 0 0 0-.571-3.594h7.854l-.75 6.6Zm.917-8.066h-8.8a11.218 11.218 0 0 0-1.009-1.375 10.69 10.69 0 0 0-2.512-2.136 10.145 10.145 0 0 0-2.09-3.676c-.22-.25-.44-.482-.671-.706l-.58-6.11a.733.733 0 0 0-.56-.644l-.65-.154-.154-1.333h18.86l-1.834 16.134Zm2-17.6H21.203l-.58-5.134h20.357l-.583 5.134Zm2.138-6.6H19.067V8.8c0-.405.328-.733.733-.733h22c.405 0 .733.328.733.733v1.467Z"/><path d="M31.1 32.267c.042 0 .083-.006.124-.008.011 0 .023.008.034.008a.692.692 0 0 0 .109-.016 3.967 3.967 0 0 0 2.899-1.567 5.101 5.101 0 0 0 .714-4.475c-.102-.38-.195-.753-.285-1.113-.572-2.293-1.119-4.456-3.435-4.553-.024 0-.046-.004-.07-.004-.023 0-.057-.006-.09-.006-2.591 0-4.7 2.632-4.7 5.867s2.109 5.867 4.7 5.867Zm.568-10.157c.758.298 1.092 1.291 1.604 3.341.092.367.187.751.293 1.14a3.656 3.656 0 0 1-.464 3.2 2.59 2.59 0 0 1-.876.734 10.656 10.656 0 0 0-.733-3.68c-.073-.23-.147-.45-.211-.66-.427-1.389.073-3.188.387-4.075Zm-1.576.11a8.05 8.05 0 0 0-.212 4.393c.068.22.143.448.22.685.367 1.12.807 2.472.627 3.468-1.607-.25-2.86-2.112-2.86-4.366 0-1.947.935-3.6 2.225-4.18ZM3.881 38.563l-.518.519A.733.733 0 1 0 4.4 40.118l.518-.518a.733.733 0 0 0-1.037-1.037ZM10.893 33.626a.734.734 0 0 0-1.038-1.037l-.518.518a.733.733 0 1 0 1.037 1.038l.519-.519ZM4.4 31.748l-.519.519a.733.733 0 1 0 1.037 1.037l.519-.519A.733.733 0 0 0 4.4 31.748ZM4.4 26.615l-.519.518a.733.733 0 1 0 1.037 1.037l.519-.518A.733.733 0 0 0 4.4 26.615ZM11 38.563l-.518.519a.733.733 0 1 0 1.036 1.036l.519-.518A.733.733 0 0 0 11 38.563ZM16.348 38.563l-.518.518a.734.734 0 1 0 1.037 1.037l.518-.518a.733.733 0 0 0-1.037-1.037Z"/></g><defs><clipPath id="pa"><path d="M0 0h44v44H0z"/></clipPath></defs></svg><svg viewBox="0 0 21 22" id="search" xmlns="http://www.w3.org/2000/svg"><ellipse cx="9.767" cy="10.63" rx="8.989" ry="8.884"/><path d="m16.018 17.27 3.524 3.475"/></svg><svg viewBox="0 0 44 44" id="set" xmlns="http://www.w3.org/2000/svg"><g clip-path="url(#ra)"><path d="m31.158 14.657-.47-1.531c-.599-1.74-2.51-2.671-4.27-2.08a3.347 3.347 0 0 0-2.105 2.08l-.47 1.531a8.506 8.506 0 0 0-.244 3.987 3.754 3.754 0 0 0 1.954 2.613l-.527 11.65c-.07.65.143 1.3.587 1.785a2.583 2.583 0 0 0 3.78 0 2.248 2.248 0 0 0 .587-1.736l-.53-11.7a3.753 3.753 0 0 0 1.95-2.612 8.506 8.506 0 0 0-.242-3.987Zm-1.202 3.735a2.307 2.307 0 0 1-1.522 1.731.725.725 0 0 0-.474.711l.557 12.236a.833.833 0 0 1-.22.657 1.143 1.143 0 0 1-1.594 0 .864.864 0 0 1-.216-.705l.553-12.188a.725.725 0 0 0-.474-.71 2.307 2.307 0 0 1-1.522-1.732 7.068 7.068 0 0 1 .202-3.31l.47-1.532a1.908 1.908 0 0 1 3.568 0l.47 1.532a7.078 7.078 0 0 1 .202 3.31ZM19.8 10.872a.73.73 0 0 0-.733.725v6.223l-1.986 1.963a.72.72 0 0 0-.214.548l.641 12.685a.98.98 0 0 1-.277.738c-.401.4-1.055.403-1.46.007l-.007-.007a.98.98 0 0 1-.277-.738l.646-12.685a.72.72 0 0 0-.214-.548l-1.986-1.963v-6.223a.73.73 0 0 0-.733-.725.73.73 0 0 0-.733.725v6.524a.72.72 0 0 0 .214.512l1.97 1.948-.625 12.364c-.067 1.351.987 2.5 2.354 2.565 1.366.066 2.528-.976 2.594-2.326.004-.08.004-.16 0-.239l-.625-12.364 1.97-1.948a.72.72 0 0 0 .214-.512v-6.524a.73.73 0 0 0-.733-.725Z"/><path d="M15.4 10.872a.73.73 0 0 0-.733.725v5.799c0 .4.328.724.733.724a.73.73 0 0 0 .733-.724v-5.799a.73.73 0 0 0-.733-.725ZM17.6 10.872a.73.73 0 0 0-.733.725v5.799c0 .4.328.724.733.724a.73.73 0 0 0 .733-.724v-5.799a.73.73 0 0 0-.733-.725Z"/><path d="M22 0C9.85 0 0 9.735 0 21.745c0 12.009 9.85 21.744 22 21.744s22-9.735 22-21.744C43.986 9.74 34.145.014 22 0Zm0 42.04c-11.34 0-20.533-9.087-20.533-20.295C1.467 10.536 10.66 1.45 22 1.45c11.34 0 20.533 9.086 20.533 20.295C42.52 32.948 33.335 42.027 22 42.04Z"/><path d="M24.38 35.351a.731.731 0 0 0-.829-.648h.003a13.618 13.618 0 0 1-3.108 0 .732.732 0 0 0-.814.635.727.727 0 0 0 .643.805c1.145.133 2.302.133 3.447 0a.727.727 0 0 0 .658-.792ZM33.22 12.405a.74.74 0 0 0-1.033-.09l-.003.003a.72.72 0 0 0-.088 1.02 12.936 12.936 0 0 1-.778 17.648.72.72 0 0 0-.002 1.025.74.74 0 0 0 1.037.002 14.374 14.374 0 0 0 .867-19.608ZM17.086 9.582l-.002-.001h-.002.004Z"/><path d="M25.46 7.653a14.96 14.96 0 0 0-8.633.524.722.722 0 0 0 .258 1.404.742.742 0 0 0 .256-.047 13.47 13.47 0 0 1 7.773-.472.724.724 0 1 0 .345-1.409ZM12.65 30.95a12.887 12.887 0 0 1-3.85-9.205 12.85 12.85 0 0 1 2.523-7.675.72.72 0 0 0-.145-1.015.739.739 0 0 0-1.04.161 14.371 14.371 0 0 0 1.472 18.76.74.74 0 0 0 1.039 0 .72.72 0 0 0 0-1.026Z"/></g><defs><clipPath id="ra"><path d="M0 0h44v43.489H0z"/></clipPath></defs></svg><svg viewBox="0 0 34 34" id="shop" xmlns="http://www.w3.org/2000/svg"><path d="M32.406 28.156h-3.718V17.484a2.31 2.31 0 0 0 1.69-3.092l-1.69-4.397V1.594a.531.531 0 0 0-.532-.532H5.844a.531.531 0 0 0-.532.532v8.4l-1.69 4.398a2.31 2.31 0 0 0 1.69 3.092v10.672H1.595a.531.531 0 0 0-.532.532v3.718a.532.532 0 0 0 .532.532h30.812a.532.532 0 0 0 .532-.532v-3.718a.53.53 0 0 0-.532-.532Zm-5.843 0v-11.33c.29.3.658.517 1.062.625v10.705h-1.063Zm-4.25.532v3.187h-2.125v-3.719h1.062a.53.53 0 0 0 .531-.531v-1.594a.531.531 0 0 0-.531-.531h-3.188a.531.531 0 0 0-.53.531v1.594a.531.531 0 0 0 .53.531h1.063v3.719H17v-3.188a.53.53 0 0 0-.531-.53h-1.063v-1.595a.529.529 0 0 0-.531-.53h-1.063v-8.55a2.309 2.309 0 0 0 1.313-.79 2.29 2.29 0 0 0 1.781.84h.188a2.288 2.288 0 0 0 1.78-.84c.077.092.161.178.251.258v1.644a2.659 2.659 0 0 0-2.656 2.656.533.533 0 0 0 .531.531h5.313a.529.529 0 0 0 .53-.531 2.659 2.659 0 0 0-2.655-2.656v-1.111c.154.032.311.048.469.048h.166a2.305 2.305 0 0 0 1.802-.864 2.302 2.302 0 0 0 1.805.864h.102c.334 0 .664-.07.968-.21v8.71h-1.063a.53.53 0 0 0-.53.532v1.593h-1.063a.532.532 0 0 0-.532.532Zm-3.72-1.594v-.532h2.126v.532h-2.125ZM8.264 14.893l1.173-4.268h2.156l-.79 4.8a1.243 1.243 0 0 1-1.232 1.044h-.102a1.248 1.248 0 0 1-1.204-1.576ZM8.5 17.32c.304.14.634.21.968.21h.102a2.3 2.3 0 0 0 1.805-.864 2.306 2.306 0 0 0 1.375.825v2.695H8.5v-2.866Zm4.677-.852a1.248 1.248 0 0 1-1.231-1.451l.724-4.393h2.175l-.256 4.664a1.248 1.248 0 0 1-1.246 1.18h-.166Zm4.822-.39a1.237 1.237 0 0 1-.905.39h-.188a1.25 1.25 0 0 1-1.245-1.313l.248-4.531h2.182l.248 4.528v.003a1.233 1.233 0 0 1-.34.923Zm1.412-.79-.256-4.664h2.175l.724 4.393a1.248 1.248 0 0 1-1.231 1.45h-.166a1.248 1.248 0 0 1-1.246-1.179Zm.776 4.367a1.597 1.597 0 0 1 1.503 1.063h-4.068a1.597 1.597 0 0 1 1.503-1.063h1.063Zm5.338-3.679a1.239 1.239 0 0 1-.992.492h-.104a1.244 1.244 0 0 1-1.23-1.045l-.792-4.799h2.157l1.172 4.265v.003a1.24 1.24 0 0 1-.211 1.084Zm-.556 11.117h.531v1.062h-.531v-1.062Zm4.418-12.321a1.248 1.248 0 1 1-2.368.779l-1.354-4.927h2.127l1.595 4.148ZM6.375 2.125h21.25v7.438H6.375V2.125ZM4.749 15.928a1.23 1.23 0 0 1-.136-1.155l1.595-4.148h2.127L6.98 15.552a1.252 1.252 0 0 1-1.785.775 1.23 1.23 0 0 1-.447-.4Zm1.626 1.523a2.305 2.305 0 0 0 1.063-.626v11.331H6.375V17.452Zm4.25 14.424h-8.5v-2.656h8.5v2.656Zm.531-3.719H8.5V21.25h4.25v10.625h-1.063v-3.188a.53.53 0 0 0-.53-.53Zm2.656-1.062h.532v1.593a.529.529 0 0 0 .531.532h1.063v2.656h-2.126v-4.781Zm18.063 4.781h-8.5v-2.656h8.5v2.656Z"/><path d="M20.719 6.375h-.577a3.195 3.195 0 0 0-2.61-2.611v-.576a.531.531 0 1 0-1.063 0v.576a3.195 3.195 0 0 0-2.611 2.611h-.577a.531.531 0 0 0-.531.531 2.127 2.127 0 0 0 2.125 2.125h4.25a2.127 2.127 0 0 0 2.125-2.125.531.531 0 0 0-.531-.531ZM17 4.781a2.129 2.129 0 0 1 2.058 1.594h-4.116A2.129 2.129 0 0 1 17 4.781Zm2.125 3.188h-4.25a1.063 1.063 0 0 1-.92-.532h6.09a1.064 1.064 0 0 1-.92.532ZM13.045 5.223a.532.532 0 0 0 .236-.442V3.188H12.22v1.29a2.339 2.339 0 0 1-.531.194V3.188h-1.063v1.484a2.337 2.337 0 0 1-.531-.194v-1.29H9.03V4.78a.531.531 0 0 0 .237.442c.409.273.872.454 1.357.531v3.277h1.063V5.754a3.406 3.406 0 0 0 1.357-.53ZM22.844 2.656a2.125 2.125 0 0 0-.532 4.183v2.192h1.063V6.84a2.125 2.125 0 0 0-.531-4.183Zm0 3.188a1.063 1.063 0 1 1 0-2.125 1.063 1.063 0 0 1 0 2.125Z"/></svg><svg viewBox="0 0 34 34" id="stopwatch" xmlns="http://www.w3.org/2000/svg"><path d="M0 0h34v34H0z"/><g clip-path="url(#ta)"><path d="M-997-2302H908v5196H-997z"/><path d="M-997-2302H908v5196H-997z"/><g clip-path="url(#tb)"><path d="m31.754 12.881.996-.996c.288-.288.447-.67.447-1.078 0-.407-.159-.79-.447-1.077l-1.14-1.141a1.514 1.514 0 0 0-1.078-.447c-.407 0-.79.159-1.078.447l-.996.996a12.7 12.7 0 0 0-4.412-1.933V6.179h.606a1.49 1.49 0 0 0 1.488-1.488v-2.07a1.49 1.49 0 0 0-1.488-1.488H17.8a1.49 1.49 0 0 0-1.488 1.488v2.07c0 .82.668 1.488 1.488 1.488h.606v1.477a12.703 12.703 0 0 0-4.392 1.929l-.996-.996a1.514 1.514 0 0 0-1.078-.447c-.407 0-.79.159-1.078.447l-1.14 1.14a1.526 1.526 0 0 0 0 2.156l.176.177H5.19a.664.664 0 0 0 0 1.328h5.193a12.713 12.713 0 0 0-1.215 2.552H.664a.664.664 0 0 0 0 1.328H8.79a12.747 12.747 0 0 0-.314 2.553H4.25a.664.664 0 0 0 0 1.328h4.265c.072.879.233 1.733.474 2.552H3.32a.664.664 0 0 0 0 1.329h6.142c1.932 4.598 6.482 7.835 11.774 7.835C28.274 32.867 34 27.142 34 20.104c0-2.678-.83-5.167-2.246-7.222Zm-1.36-3.353a.192.192 0 0 1 .138-.058c.037 0 .091.01.139.058l1.14 1.14a.193.193 0 0 1 .058.14c0 .037-.01.09-.058.138l-.873.873c-.435-.509-.91-.983-1.418-1.418l.873-.873ZM17.64 4.69v-2.07a.16.16 0 0 1 .16-.16h6.852a.16.16 0 0 1 .16.16v2.07a.16.16 0 0 1-.16.16H17.8a.16.16 0 0 1-.16-.16Zm2.095 1.488h2.983v1.247a12.835 12.835 0 0 0-2.983.002V6.179Zm-9.075 4.49 1.141-1.141a.192.192 0 0 1 .139-.058c.037 0 .091.01.139.058l.873.873c-.51.435-.983.91-1.418 1.418l-.874-.873a.196.196 0 0 1 0-.277Zm10.576 20.87C14.93 31.54 9.8 26.41 9.8 20.103S14.93 8.667 21.236 8.667s11.436 5.13 11.436 11.436-5.13 11.436-11.436 11.436Z"/><path d="m25.619 14.781-3.14 3.14a2.498 2.498 0 0 0-1.243-.331 2.517 2.517 0 0 0-2.514 2.513 2.517 2.517 0 0 0 2.514 2.514 2.516 2.516 0 0 0 2.514-2.514c0-.452-.121-.877-.331-1.244l3.139-3.139a.664.664 0 0 0-.94-.939Zm-4.383 6.508a1.187 1.187 0 0 1-1.186-1.186 1.187 1.187 0 0 1 2.371 0c0 .654-.531 1.186-1.185 1.186ZM21.236 11.494a.669.669 0 0 0 .47-.195.67.67 0 0 0 .194-.47.669.669 0 0 0-.664-.664.669.669 0 0 0-.664.664.668.668 0 0 0 .664.665ZM21.236 28.713a.669.669 0 0 0-.47.194.668.668 0 0 0 .47 1.134.666.666 0 0 0 .664-.664.669.669 0 0 0-.194-.47.669.669 0 0 0-.47-.194ZM14.678 12.882a.67.67 0 0 0-.47.194.67.67 0 0 0-.194.47.67.67 0 0 0 .195.47.669.669 0 0 0 .939 0 .67.67 0 0 0 .194-.47.67.67 0 0 0-.194-.47.669.669 0 0 0-.47-.194ZM27.794 25.997a.67.67 0 0 0-.47.194.668.668 0 0 0 0 .94.67.67 0 0 0 .47.194.669.669 0 0 0 .47-.195.67.67 0 0 0 .194-.47.669.669 0 0 0-.664-.663ZM14.678 25.997a.67.67 0 0 0-.47.194.669.669 0 0 0-.194.47.67.67 0 0 0 .195.47.67.67 0 0 0 .47.194.669.669 0 0 0 .469-.195.67.67 0 0 0 .194-.47.67.67 0 0 0-.194-.469.67.67 0 0 0-.47-.194ZM11.963 19.44a.668.668 0 0 0-.665.663.667.667 0 0 0 .665.664.666.666 0 0 0 .664-.664.669.669 0 0 0-.195-.47.669.669 0 0 0-.47-.194ZM30.98 19.634a.667.667 0 0 0-1.133.47.667.667 0 0 0 .663.663.669.669 0 0 0 .664-.664.67.67 0 0 0-.195-.47ZM.664 23.704a.669.669 0 0 0-.47.194.67.67 0 0 0-.194.47.67.67 0 0 0 .195.47.67.67 0 0 0 .47.194.669.669 0 0 0 .468-.195.67.67 0 0 0 .195-.47.67.67 0 0 0-.195-.47.668.668 0 0 0-.469-.193Z"/><path d="M30.314 18.087a.664.664 0 0 0 .447-.826 9.964 9.964 0 0 0-6.704-6.689.664.664 0 1 0-.376 1.274 8.576 8.576 0 0 1 5.807 5.794.664.664 0 0 0 .826.447Z"/></g></g><defs><clipPath id="ta"><path transform="translate(-997 -2302)" d="M0 0h1905v5196H0z"/></clipPath><clipPath id="tb"><path d="M0 0h34v34H0z"/></clipPath></defs></svg><svg viewBox="0 0 17 16" id="telegram" xmlns="http://www.w3.org/2000/svg"><path d="M10.318 14.3a.694.694 0 0 1-.616-.36l-2.041-3.858a.622.622 0 0 1 .05-.66L11.005 5.2 6.538 8.314a.725.725 0 0 1-.7.046L1.757 6.432a.646.646 0 0 1-.379-.618.653.653 0 0 1 .449-.574L14.895.69a.719.719 0 0 1 .724.15c.19.18.252.447.16.685l-4.816 12.35a.684.684 0 0 1-.607.424l-.038.001Z"/></svg><svg viewBox="0 0 39 39" id="twitter" xmlns="http://www.w3.org/2000/svg"><circle cx="19.5" cy="19.5" r="19.5"/><path d="M29.526 12.98a8.437 8.437 0 0 1-2.422.652 4.196 4.196 0 0 0 1.85-2.319 8.304 8.304 0 0 1-2.67 1.017A4.195 4.195 0 0 0 23.212 11a4.205 4.205 0 0 0-4.206 4.208c0 .326.04.652.104.965a11.954 11.954 0 0 1-8.673-4.403 4.177 4.177 0 0 0-.573 2.124c0 1.46.743 2.748 1.875 3.505a4.244 4.244 0 0 1-1.902-.535v.051a4.207 4.207 0 0 0 3.372 4.13 4.456 4.456 0 0 1-1.107.143c-.274 0-.533-.027-.795-.064a4.214 4.214 0 0 0 3.933 2.918 8.43 8.43 0 0 1-5.223 1.798c-.352 0-.678-.012-1.016-.052a11.911 11.911 0 0 0 6.46 1.888c7.736 0 11.97-6.41 11.97-11.972 0-.182 0-.365-.013-.547a9.062 9.062 0 0 0 2.11-2.176Z"/></svg><svg viewBox="0 0 22 22" id="watch" xmlns="http://www.w3.org/2000/svg"><g opacity=".9"><path d="M11.575 2.54v-.959a.611.611 0 0 0-1.222 0v.965c-4.803.333-8.609 4.344-8.609 9.23 0 5.102 4.153 9.254 9.256 9.254 5.103 0 9.256-4.152 9.256-9.255 0-4.91-3.845-8.937-8.681-9.235ZM11 19.808c-4.43 0-8.033-3.604-8.033-8.033 0-4.43 3.603-8.033 8.033-8.033s8.033 3.604 8.033 8.033c0 4.429-3.603 8.033-8.033 8.033Z"/><path d="M7.863 17.322a6.39 6.39 0 0 1-3.234-5.547.305.305 0 1 0-.611 0 7.004 7.004 0 0 0 3.544 6.079.306.306 0 0 0 .301-.532ZM9.53 18.16a6.839 6.839 0 0 1-.353-.102.305.305 0 0 0-.186.582c.127.04.255.078.385.11a.305.305 0 0 0 .153-.59ZM18.885 5.728a.611.611 0 0 0 .863-.865L18.162 3.28a.61.61 0 1 0-.863.865l1.586 1.583ZM11.575 11.661V6.776a.611.611 0 0 0-1.223 0v5.15c0 .168.088.328.21.443l1.789 1.672a.61.61 0 0 0 .657.117.61.61 0 0 0 .163-1.006l-1.596-1.49Z"/></g></svg></svg>